<svg width="32" height="32" viewBox="0 0 32 32" fill="none" xmlns="http://www.w3.org/2000/svg">
<path d="M1.17189 15.7552C1.03734 23.4636 16.1698 16.017 16.1698 16.017C16.1698 16.017 1.30644 8.04678 1.17189 15.7552Z" fill="#121018"/>
<path d="M31.167 16.2785C31.0325 23.9869 16.1691 16.0167 16.1691 16.0167C16.1691 16.0167 31.3016 8.57009 31.167 16.2785Z" fill="#121018"/>
<path d="M8.43875 29.1707C14.8982 33.1388 16.1696 16.0166 16.1696 16.0166C16.1696 16.0166 1.97927 25.2025 8.43875 29.1707Z" fill="#121018"/>
<path d="M23.9007 2.86304C30.3601 6.83116 16.1698 16.0171 16.1698 16.0171C16.1698 16.0171 17.4412 -1.10509 23.9007 2.86304Z" fill="#121018"/>
<path d="M23.437 29.4326C16.843 33.1729 16.1699 16.0168 16.1699 16.0168C16.1699 16.0168 30.031 25.6923 23.437 29.4326Z" fill="#121018"/>
<path d="M8.90306 2.60125C2.30904 6.34153 16.1701 16.0171 16.1701 16.0171C16.1701 16.0171 15.4971 -1.13903 8.90306 2.60125Z" fill="#121018"/>
</svg>
